<svg width="95" height="96" viewBox="0 0 95 96" fill="none" xmlns="http://www.w3.org/2000/svg">
<path fill-rule="evenodd" clip-rule="evenodd" d="M41.9732 15.6408C36.6756 17.573 32.5207 22.0911 30.8615 27.7637C27.9143 29.2757 26.151 31.1921 26.151 33.2734C26.151 35.6258 28.3973 37.7641 32.0613 39.3467C31.9548 41.473 32.2818 43.5987 33.0222 45.5948C33.7626 47.5909 34.901 49.4156 36.3683 50.9582C37.8356 52.5007 39.6011 53.7289 41.5577 54.5682C43.5143 55.4074 45.621 55.8402 47.75 55.8402C49.8789 55.8402 51.9857 55.4074 53.9422 54.5682C55.8988 53.7289 57.6643 52.5007 59.1316 50.9582C60.5989 49.4156 61.7374 47.5909 62.4778 45.5948C63.2182 43.5987 63.5451 41.473 63.4387 39.3467C67.1026 37.7641 69.3489 35.6258 69.3489 33.2734C69.3489 31.1901 67.5857 29.2757 64.6364 27.7637C62.9772 22.0891 58.8243 17.573 53.5267 15.6389C53.3157 14.7872 52.8255 14.0307 52.1344 13.4901C51.4432 12.9495 50.5909 12.6559 49.7135 12.6563H45.7864C44.9087 12.6561 44.0562 12.9499 43.3651 13.4909C42.6739 14.0318 42.1839 14.7888 41.9732 15.6408V15.6408ZM43.8229 24.4375C44.3436 24.4375 44.8431 24.2306 45.2113 23.8624C45.5795 23.4942 45.7864 22.9947 45.7864 22.474V16.5833H49.7135V22.474C49.7135 22.9947 49.9204 23.4942 50.2886 23.8624C50.6568 24.2306 51.1563 24.4375 51.677 24.4375C52.1978 24.4375 52.6972 24.2306 53.0655 23.8624C53.4337 23.4942 53.6406 22.9947 53.6406 22.474V19.9646C56.7567 21.555 59.272 24.3884 60.5621 27.9287C60.5564 27.9515 60.5512 27.9744 60.5464 27.9974C60.4485 28.0744 60.3455 28.1446 60.2381 28.2075C59.6765 28.5413 58.7497 28.9065 57.4656 29.2403C54.9267 29.902 51.4159 30.3281 47.75 30.3281C44.084 30.3281 40.5732 29.902 38.0344 29.2403C36.7502 28.9065 35.8234 28.5413 35.2618 28.2075C35.1544 28.1446 35.0514 28.0744 34.9536 27.9974L34.9496 27.9797C34.946 27.9626 34.9421 27.9456 34.9379 27.9287C36.2279 24.3884 38.7432 21.5531 41.8593 19.9646V22.474C41.8593 22.9947 42.0662 23.4942 42.4344 23.8624C42.8027 24.2306 43.3021 24.4375 43.8229 24.4375ZM32.7171 31.2274L32.6523 31.2588C31.4604 31.8695 30.7398 32.4507 30.3608 32.8847C30.2523 33.0005 30.161 33.1315 30.0899 33.2734C30.1311 33.3677 30.2509 33.5719 30.5788 33.89C31.1934 34.4849 32.289 35.2016 33.9639 35.8869C37.2941 37.2496 42.1676 38.1823 47.75 38.1823C53.3323 38.1823 58.2058 37.2496 61.534 35.8849C63.2109 35.2016 64.3065 34.4849 64.9211 33.89C65.249 33.5719 65.3688 33.3677 65.4101 33.2734C65.3389 33.1315 65.2477 33.0005 65.1391 32.8847C64.7601 32.4507 64.0395 31.8695 62.8476 31.2588L62.7828 31.2274C62.6105 31.3536 62.4323 31.4716 62.2488 31.5809C61.2336 32.1856 59.9023 32.6647 58.4532 33.0417C55.5275 33.8036 51.677 34.2552 47.75 34.2552C43.8229 34.2552 39.9724 33.8036 37.0467 33.0417C35.5976 32.6647 34.2663 32.1856 33.2512 31.5789C33.0677 31.4696 32.8894 31.3517 32.7171 31.2255V31.2274ZM65.4297 33.3284L65.4218 33.3127L65.4258 33.3323L65.4297 33.3284ZM65.4297 33.2145C65.4277 33.2145 65.4258 33.2204 65.4238 33.2342C65.4254 33.229 65.4267 33.2238 65.4277 33.2185V33.2126L65.4297 33.2145ZM30.0742 33.2263L30.0722 33.2145L30.0761 33.2342V33.2263H30.0742ZM30.0742 33.3206V33.3107V33.3166L30.0722 33.3284L30.0742 33.3206ZM59.5194 40.6838C56.1343 41.5871 52.0894 42.1094 47.75 42.1094C43.4105 42.1094 39.3656 41.5851 35.9805 40.6838C36.1161 43.7142 37.4154 46.5755 39.6077 48.6719C41.8001 50.7683 44.7166 51.9384 47.75 51.9384C50.7833 51.9384 53.6998 50.7683 55.8922 48.6719C58.0846 46.5755 59.3838 43.7142 59.5194 40.6838V40.6838Z" fill="#641034"/>
<path fill-rule="evenodd" clip-rule="evenodd" d="M68.7304 53.0934C68.8404 52.7473 68.8523 52.3775 68.7647 52.0251C68.6771 51.6726 68.4935 51.3514 68.2343 51.0971C67.9751 50.8427 67.6504 50.6653 67.2964 50.5844C66.9423 50.5035 66.5728 50.5224 66.2289 50.639C63.9528 51.4128 61.9415 52.8135 60.4264 54.68C58.9113 56.5464 57.9539 58.8027 57.6644 61.1892C57.375 63.5756 57.7652 65.9954 58.7902 68.1699C59.8152 70.3444 61.4333 72.1854 63.4583 73.4809V81.3802C63.4583 81.901 63.6652 82.4004 64.0334 82.7686C64.4017 83.1369 64.9011 83.3437 65.4219 83.3437H75.2396C75.7603 83.3437 76.2598 83.1369 76.628 82.7686C76.9962 82.4004 77.2031 81.901 77.2031 81.3802V73.4828C79.2293 72.1877 80.8484 70.3466 81.8742 68.1716C82.8999 65.9966 83.2905 63.5761 83.001 61.1888C82.7115 58.8016 81.7537 56.5446 80.2378 54.6778C78.7219 52.811 76.7096 51.4104 74.4325 50.637C74.0884 50.5203 73.7186 50.5013 73.3643 50.5822C73.01 50.6631 72.6852 50.8408 72.4259 51.0954C72.1666 51.35 71.983 51.6716 71.8956 52.0244C71.8083 52.3771 71.8205 52.7472 71.931 53.0934C71.948 53.1463 71.9625 53.2001 71.9742 53.2544L73.0679 58.3596C73.1543 58.7673 73.1486 59.1891 73.0512 59.5943C72.9538 59.9994 72.7671 60.3777 72.5048 60.7015C72.2425 61.0253 71.9111 61.2864 71.535 61.4657C71.1589 61.6451 70.7474 61.7381 70.3307 61.7381C69.914 61.7381 69.5026 61.6451 69.1264 61.4657C68.7503 61.2864 68.419 61.0253 68.1566 60.7015C67.8943 60.3777 67.7076 59.9994 67.6102 59.5943C67.5128 59.1891 67.5071 58.7673 67.5935 58.3596L68.6872 53.2544C68.699 53.2001 68.7134 53.1463 68.7304 53.0934V53.0934ZM76.9066 57.5369L76.7103 56.6101C77.6649 57.6053 78.3733 58.81 78.7789 60.128C79.1845 61.446 79.276 62.8407 79.0461 64.2004C78.8161 65.56 78.2711 66.847 77.4547 67.9584C76.6382 69.0697 75.573 69.9745 74.3442 70.6004C74.01 70.7707 73.7317 71.0333 73.542 71.3569C73.3524 71.6805 73.2594 72.0517 73.2741 72.4265L73.276 72.5443V79.4167H67.3854V72.5443V72.5286L67.3874 72.4265C67.4022 72.0519 67.3095 71.6808 67.1202 71.3573C66.9309 71.0337 66.653 70.771 66.3192 70.6004C65.0904 69.9745 64.0252 69.0697 63.2087 67.9584C62.3923 66.847 61.8473 65.56 61.6173 64.2004C61.3874 62.8407 61.4788 61.446 61.8844 60.128C62.29 58.81 62.9985 57.6053 63.9531 56.6101L63.7548 57.5369C63.5447 58.5174 63.5566 59.5325 63.7895 60.5078C64.0224 61.4831 64.4705 62.394 65.1009 63.1738C65.7313 63.9536 66.5281 64.5826 67.433 65.0146C68.3379 65.4467 69.328 65.6709 70.3307 65.6709C71.3335 65.6709 72.3235 65.4467 73.2284 65.0146C74.1333 64.5826 74.9301 63.9536 75.5605 63.1738C76.191 62.394 76.639 61.4831 76.8719 60.5078C77.1048 59.5325 77.1167 58.5174 76.9066 57.5369V57.5369Z" fill="#641034"/>
<path fill-rule="evenodd" clip-rule="evenodd" d="M36.6619 57.048L45.7865 64.1442V71.3603C46.189 71.4624 46.8173 71.5625 47.75 71.5625C48.6827 71.5625 49.311 71.4643 49.7135 71.3603V63.7083L53.6406 60.763V83.3438H12.4062V71.5625C12.4062 64.374 25.2085 59.2452 36.6619 57.048ZM29.0473 72.0887L41.8594 69.9544V79.4167H26.151V64.0618C28.3017 63.2363 30.4979 62.5348 32.7289 61.9608L29.0473 72.0887ZM16.3333 79.4167H22.224V65.827L22.0787 65.9036C19.9894 67.011 18.4618 68.1401 17.4997 69.2023C16.5572 70.2469 16.3333 71.0186 16.3333 71.5625V79.4167ZM47.75 75.4896C47.0078 75.4896 46.3559 75.4405 45.7865 75.358V79.4167H49.7135V75.358C49.1441 75.4405 48.4922 75.4896 47.75 75.4896ZM41.7612 65.988L36.8366 62.1591L35.0361 67.1092L41.7612 65.99V65.988Z" fill="#641034"/>
</svg>
